<svg width="120" height="120" viewBox="0 0 120 120" fill="none" xmlns="http://www.w3.org/2000/svg">
<path d="M82.1688 40.2957C80.2928 38.6586 77.5948 38.6958 76.0468 39.1717C77.0608 37.9321 79.4228 36.9158 80.1188 36.7925C80.6488 36.9903 82.1688 38.5451 82.1688 40.2957ZM88.1588 33.5164C86.9248 26.9467 71.5868 31.2998 63.8628 28.5093C63.7148 30.4244 66.2408 33.4929 68.6568 34.6287C64.5268 38.1965 60.8188 45.385 60.0708 54.1675C59.3248 45.385 55.6168 38.1965 51.4868 34.6287C53.9028 33.4929 56.4308 30.4244 56.2808 28.5093C48.5568 31.2998 33.2188 26.9467 31.9828 33.5164C31.7228 34.9067 32.3948 37.0255 33.1208 37.6345C33.2508 37.1939 33.9288 35.7527 36.0668 35.4296C46.8728 33.8043 55.8948 50.3823 47.7508 57.0852C47.6268 57.1871 47.6968 57.375 47.8648 57.375H72.2808C72.4468 57.375 72.5168 57.1871 72.3948 57.0852C64.2488 50.3823 73.2708 33.8043 84.0768 35.4296C86.2168 35.7527 86.8928 37.1939 87.0228 37.6345C87.7487 37.0255 88.4208 34.9067 88.1588 33.5164ZM90.7868 18.4383C90.5928 17.8176 96.9287 17.8019 96.9287 21.7496C96.9287 24.3952 93.1387 25.6484 93.1387 28.3938C93.1387 29.6725 94.5207 30.6105 94.9447 30.6105C93.9687 26.2026 98.0047 28.5093 99.0947 29.3337C96.9287 23.4063 101.805 23.4435 101.325 20.7255C100.991 18.8261 96.7527 19.3998 95.2187 18.4383C92.4967 16.7328 89.2767 10.0964 87.1548 16.7328C91.1107 20.3887 88.8087 25.7698 83.7868 25.7698C83.7868 25.7698 83.7588 26.559 83.8048 26.6216C89.7948 26.3299 91.8828 21.9474 90.7868 18.4383ZM20.9028 29.3337C21.9928 28.5093 26.0288 26.2026 25.0548 30.6105C25.4768 30.6105 26.8588 29.6725 26.8588 28.3938C26.8588 25.6484 23.0688 24.3952 23.0688 21.7496C23.0688 17.8019 29.4048 17.8176 29.2108 18.4383C28.1168 21.9474 30.2048 26.3299 36.1948 26.6216C36.2388 26.559 36.2108 25.7698 36.2108 25.7698C31.1908 25.7698 28.8888 20.3887 32.8428 16.7328C30.7208 10.0964 27.5008 16.7328 24.7788 18.4383C23.2448 19.3998 19.0068 18.8261 18.6728 20.7255C18.1948 23.4435 23.0688 23.4063 20.9028 29.3337ZM37.9108 40.2957C39.7888 38.6586 42.4868 38.6958 44.0328 39.1717C43.0228 37.9321 40.6568 36.9158 39.9628 36.7925C39.4328 36.9903 37.9108 38.5451 37.9108 40.2957ZM62.9208 3.54629L59.9988 0L57.0768 3.54629L59.9988 7.2786L62.9208 3.54629ZM79.6008 14.2694L77.5228 11.7492L75.4468 14.2694L77.5228 16.7328L79.6008 14.2694ZM96.4547 87.118L93.8207 84.3433L91.1868 87.118L93.8207 89.5521L96.4547 87.118ZM44.5528 14.2694L42.4748 11.7492L40.3988 14.2694L42.4748 16.7328L44.5528 14.2694ZM38.6008 26.6216H46.3508C52.8668 26.6216 55.7988 22.6406 56.6848 19.1883H63.3148C64.2008 22.6406 67.1308 26.6216 73.6488 26.6216H81.3988C81.3988 26.6216 82.7548 24.7907 83.0948 23.8841C84.3188 20.6217 82.7548 19.1002 80.4728 19.1002L77.5228 21.7614L74.5728 19.1002C72.2908 19.1002 70.7268 20.6217 71.9508 23.8841C72.1068 24.3012 72.4808 24.9141 72.8348 25.4526C70.0848 25.0766 66.5748 23.2026 65.8048 19.1883C65.8048 19.1883 67.8368 15.9749 68.3468 14.6747C70.1788 9.99853 67.8388 8.08734 64.4168 8.08734L59.9988 13.257L55.5808 8.08734C52.1588 8.08734 49.8188 9.99853 51.6528 14.6747C52.1608 15.9749 54.1948 19.1883 54.1948 19.1883C53.4228 23.2026 49.9128 25.0766 47.1628 25.4526C47.5188 24.9141 47.8908 24.3012 48.0468 23.8841C49.2688 20.6217 47.7088 19.1002 45.4248 19.1002L42.4748 21.7614L39.5248 19.1002C37.2408 19.1002 35.6808 20.6217 36.9028 23.8841C37.2428 24.7907 38.6008 26.6216 38.6008 26.6216ZM118.727 50.5351C117.231 51.289 108.455 55.3816 97.2127 53.8679C97.3307 53.3333 97.4267 52.7948 97.5087 52.2563C104.991 51.3653 111.073 50.1023 114.949 47.9561C119.367 45.5084 121.299 39.6651 119.069 35.318C119.011 35.2083 118.851 35.1887 118.771 35.2808C117.549 36.6809 109.865 45.0012 97.7587 47.588C97.7267 46.9594 97.6707 46.3387 97.5867 45.7218C103.467 42.4027 109.207 38.5784 111.941 35.081C116.073 29.7939 115.693 23.0499 111.761 19.6113C111.677 19.5369 111.541 19.5584 111.483 19.6505C110.239 21.6929 98.5947 40.4269 85.8108 48.5142C85.6828 48.5965 85.5108 48.7022 85.3388 48.806C84.9728 49.0273 84.9328 49.5012 85.2448 49.7831C86.7188 51.1127 87.6348 52.9632 87.6348 55.0174C87.6348 58.5891 84.8688 61.5597 81.2128 62.2039C79.3548 62.5623 76.6728 62.4585 74.0968 61.6106C73.9808 61.5734 73.8608 61.6498 73.8608 61.7653V73.0778C73.8608 73.2599 74.1388 73.3049 74.2048 73.1307C75.7708 69.0008 80.4588 68.1236 82.5088 68.1236C83.2468 72.5373 84.5648 76.1933 86.2767 78.1613C89.0648 81.359 93.6167 81.3139 95.5907 79.1031C95.6587 79.0268 95.6387 78.9073 95.5467 78.8564C94.3867 78.1926 87.7507 74.1372 86.4227 67.4911C86.9467 67.3109 87.4588 67.1073 87.9488 66.8664C90.0908 70.3951 93.2087 73.538 95.7188 74.7383C99.9347 76.7514 103.795 75.7723 105.507 72.8252C105.569 72.7214 105.493 72.5922 105.367 72.5804C102.759 72.3728 94.7547 70.0896 91.3467 64.5264C91.7367 64.17 92.1187 63.7979 92.4747 63.4024C96.0407 66.1047 101.083 68.4937 104.693 68.9813C108.917 69.553 113.703 68.2117 113.819 63.3221C113.821 63.2242 113.733 63.1439 113.629 63.1498C112.127 63.2398 102.185 63.6706 95.1007 59.623C95.3467 59.159 95.5747 58.6851 95.7887 58.2014C95.7887 58.2014 106.493 60.7196 111.565 59.8854C116.605 59.0571 119.557 55.317 118.987 50.6643C118.971 50.5488 118.835 50.4802 118.727 50.5351ZM24.2088 58.2014C24.4228 58.6851 24.6528 59.159 24.8988 59.623C17.8168 63.6687 7.87883 63.2418 6.37083 63.1498C6.26483 63.1439 6.17683 63.2281 6.17883 63.324C6.29683 68.2117 11.0808 69.553 15.3048 68.9813C18.9128 68.4937 23.9568 66.1047 27.5228 63.4024C27.8808 63.7979 28.2608 64.17 28.6508 64.5264C25.2408 70.0896 17.2388 72.3728 14.6308 72.5804C14.5048 72.5922 14.4308 72.7214 14.4908 72.8252C16.2028 75.7723 20.0628 76.7514 24.2808 74.7383C26.7888 73.538 29.9068 70.3951 32.0488 66.8664C32.5408 67.1073 33.0528 67.3109 33.5748 67.4911C32.2468 74.1372 25.6108 78.1926 24.4508 78.8564C24.3608 78.9073 24.3388 79.0268 24.4068 79.1031C26.3808 81.3139 30.9348 81.359 33.7228 78.1613C35.4348 76.1933 36.7508 72.5373 37.4888 68.1236C39.5408 68.1236 44.2268 69.0008 45.7928 73.1307C45.8608 73.3049 46.1388 73.2599 46.1388 73.0778V61.7653C46.1388 61.6498 46.0168 61.5734 45.9008 61.6106C43.3248 62.4585 40.6428 62.5623 38.7868 62.2039C35.1288 61.5597 32.3628 58.5891 32.3628 55.0174C32.3628 52.9632 33.2808 51.1108 34.7528 49.7812C35.0668 49.5011 35.0248 49.0273 34.6608 48.806C34.4868 48.7022 34.3148 48.5965 34.1848 48.5142C21.4088 40.4308 9.77083 21.7105 8.51683 19.6544C8.45883 19.5584 8.31883 19.5388 8.23283 19.6133C4.30684 23.0538 3.92484 29.7959 8.05683 35.081C10.7908 38.5784 16.5308 42.4027 22.4088 45.7218C22.3268 46.3387 22.2688 46.9594 22.2388 47.588C10.1428 45.0032 2.46484 36.6965 1.23084 35.2866C1.14884 35.1907 0.984839 35.2103 0.928839 35.3199C-1.29716 39.6691 0.63484 45.5084 5.04884 47.9561C8.92483 50.1023 15.0068 51.3653 22.4888 52.2563C22.5708 52.7948 22.6668 53.3333 22.7848 53.8679C11.5548 55.3796 2.78284 51.2968 1.27484 50.537C1.16284 50.4802 1.02684 50.5507 1.01284 50.6682C0.44484 55.3209 3.39484 59.0571 8.43483 59.8854C13.5048 60.7196 24.2088 58.2014 24.2088 58.2014ZM93.8207 93.1258L89.9207 90.071C88.3648 90.9933 87.2207 92.458 86.7767 94.1754C84.4308 94.5024 78.0348 93.0886 78.6568 92.1506C85.6667 82.3361 80.3048 76.4929 73.8608 76.8179V83.4092C73.8608 85.526 72.0048 87.2414 69.7188 87.2414H65.2688C62.0768 87.2414 59.9988 90.4352 59.9988 90.4352C59.9988 90.4352 57.9208 87.2414 54.7288 87.2414H50.2788C47.9908 87.2414 46.1388 85.526 46.1388 83.4092V76.8179C39.6948 76.4929 34.3288 82.3361 41.3408 92.1506C41.9568 93.0788 35.3828 94.565 32.2988 94.1891C31.4868 93.351 30.3148 92.8223 29.0028 92.8223C28.4248 92.8223 27.8748 92.928 27.3688 93.114C27.3688 93.114 15.2508 81.6938 15.0288 81.5822L15.1288 81.3512C15.8188 80.0666 14.7628 78.6665 14.0948 78.7644C14.8708 77.8382 14.9068 73.7827 10.6028 72.8448C10.7288 73.6594 10.7928 75.3219 10.7928 75.3219C10.7928 75.3219 7.47083 73.534 5.80283 75.0771C4.33684 76.8042 6.37083 79.9373 6.37083 79.9373C6.37083 79.9373 4.67084 79.9785 3.83284 79.908C5.06484 84.0554 9.19683 83.7617 10.0908 82.9432C10.0328 83.6031 11.5268 84.543 12.7928 83.7891L13.3488 83.5208C13.4468 83.652 25.2488 94.7511 25.2488 94.7511C24.7068 95.552 24.4488 96.535 24.6268 97.5826C24.9068 99.2197 26.2768 100.577 28.0268 100.929C29.2628 101.176 30.4248 100.937 31.3568 100.395L34.4808 103.281C34.7588 103.532 35.1348 103.688 35.5548 103.659C36.3188 103.608 36.8908 102.991 36.8328 102.284C36.8088 101.965 36.6448 101.691 36.4188 101.483C36.3688 101.429 33.2368 98.5343 33.2368 98.5343C35.8208 96.7308 40.6348 95.4599 44.6308 95.4599C45.3328 95.4599 45.6628 94.8686 45.4208 94.2889C43.6108 89.9555 47.5028 86.8165 51.5288 89.3719C53.2848 90.4861 55.0688 92.6813 56.4128 96.3431C49.8068 97.9351 41.5128 102.321 39.8348 107.109C39.1888 108.958 41.3228 111.478 43.9148 111.985C44.0128 112.007 44.1068 111.942 44.1248 111.85C45.4788 104.703 53.2008 99.3763 57.2188 98.4716C57.4208 99.0101 57.3548 98.8359 57.5568 99.3724C53.1808 101.432 48.9368 105.778 47.7248 110.943C47.1688 113.309 49.8188 115.441 52.0068 116.025C52.1168 116.054 52.2248 115.978 52.2308 115.872C52.6468 109.34 55.5448 103.792 58.1408 101.268C58.2108 101.754 58.2648 102.251 58.3008 102.754C58.3008 102.754 55.6428 110.127 55.6428 115.506C55.6428 118.009 59.3788 119.755 59.9308 120C60.6208 119.755 64.3548 118.009 64.3548 115.506C64.3548 110.127 61.6968 102.754 61.6968 102.754C61.7348 102.251 61.7868 101.754 61.8588 101.268C64.4528 103.792 67.3528 109.338 67.7668 115.87C67.7728 115.976 67.8828 116.054 67.9908 116.025C70.1808 115.441 72.8288 113.309 72.2748 110.943C71.0608 105.778 66.8188 101.432 62.4428 99.3724C62.6428 98.8359 62.5768 99.0101 62.7788 98.4716C66.7988 99.3763 74.5188 104.703 75.8728 111.85C75.8908 111.942 75.9868 112.007 76.0828 111.985C78.6728 111.478 80.8108 108.958 80.1608 107.109C78.4868 102.321 70.1908 97.9351 63.5848 96.3431C64.9308 92.6813 66.7148 90.4861 68.4708 89.3719C72.4948 86.8165 76.3868 89.9555 74.5768 94.2889C74.3348 94.8686 74.6628 95.4599 75.3668 95.4599C79.8868 95.4599 85.4548 97.0852 87.6588 99.2647C89.0667 101.368 91.6688 102.713 94.6048 102.425C97.9407 102.1 100.661 99.6054 101.037 96.5213C101.365 93.819 99.9607 91.3928 97.7227 90.071L93.8207 93.1258ZM65.0748 73.4401C66.4648 72.927 68.6428 73.3421 68.5688 75.3395C68.5508 75.7918 69.1888 75.7918 69.2348 75.3297C69.6508 72.3395 67.6208 71.4779 65.4968 71.8285C65.2328 70.8004 65.0168 69.9016 64.7708 69.0106C64.5748 68.29 64.5028 66.9369 65.3408 66.9369C65.7928 66.9369 65.6108 68.196 65.5688 68.7384C65.5308 69.2143 65.7028 69.5021 66.0908 69.5158C66.3328 69.5256 66.6348 69.2182 66.8148 69.0145C68.0308 67.6458 68.3128 65.527 66.8888 64.5048C65.6968 63.6471 62.7128 64.2855 61.8928 65.5074C61.7688 65.0472 61.1768 64.2875 60.8928 63.9565C60.6168 63.6334 60.5448 63.4122 60.9268 63.1282C61.1068 62.9911 61.6508 62.4526 61.6508 61.8965C61.6508 61.5675 61.3948 60.9605 60.5808 60.9605C59.9388 60.9605 59.2248 61.403 59.2248 62.39C59.2248 62.6093 59.2788 62.8443 59.4208 63.0969C59.0148 63.0303 57.9128 63.0577 57.3468 63.1968L65.1728 84.5743C67.4128 83.4738 69.0548 81.731 69.0548 79.861C69.0548 78.267 66.6968 78.7957 65.5508 80.0392C65.1828 78.0183 64.8548 76.1522 64.4968 74.2919C64.3988 73.7788 64.6608 73.5947 65.0748 73.4401ZM54.0088 58.9181L55.6528 63.465C54.2448 63.7979 51.9808 64.8201 51.9808 66.1732C51.9808 67.9747 55.1828 69.1477 57.0348 69.0067C56.9428 69.4179 57.0488 69.7841 57.3368 70.119C56.6648 70.119 55.3968 70.4303 54.9808 70.8768C53.9988 69.9662 52.4628 69.6353 51.7328 70.1895C50.9988 70.7475 50.9768 71.6934 51.7428 72.7625C52.2768 73.5027 52.4768 74.2331 51.8768 75.0908C54.1088 75.0908 53.2868 72.2025 54.1608 72.2025C54.0468 72.7625 54.1168 73.4107 54.3708 74.1293C54.5388 74.6071 54.5388 74.9459 54.2508 75.4061C53.5308 76.5516 52.4108 79.1834 52.5628 81.5626C51.8308 81.5587 51.4588 81.3805 51.7168 80.3858C51.8128 80.0157 51.5828 79.7513 51.2788 80.2076C50.9428 80.7108 50.7808 81.5705 50.7808 81.9386C50.7808 84.0574 53.3168 84.4843 54.2848 84.0358C57.0848 86.7331 62.5848 86.0136 64.4268 85.1089L54.7428 58.6596C54.5448 58.1603 53.8348 58.3992 54.0088 58.9181ZM53.6728 80.7049C53.4728 79.6162 54.9948 77.6698 56.9308 75.7918C56.5188 77.0157 56.7748 79.1247 57.5828 79.8512C56.1788 79.8512 54.5108 80.1136 53.6728 80.7049Z" fill="black"/>
</svg>
